<?xml version="1.0" encoding="UTF-8"?>
<svg width="200px" height="200px" viewBox="0 0 200 200" version="1.1" xmlns="http://www.w3.org/2000/svg" xmlns:xlink="http://www.w3.org/1999/xlink">
    <g stroke="none" stroke-width="1" fill="none" fill-rule="evenodd">
        <g transform="translate(0.000000, 0.000000)">
            <path d="M100,0 C44.771525,0 0,44.771525 0,100 C0,155.228475 44.771525,200 100,200 C155.228475,200 200,155.228475 200,100 C200,44.771525 155.228475,0 100,0 Z M100,170 C61.3400675,170 30,138.659932 30,100 C30,61.3400675 61.3400675,30 100,30 C138.659932,30 170,61.3400675 170,100 C170,138.659932 138.659932,170 100,170 Z" fill="#42B883"></path>
            <polygon fill="#35495E" points="100 50 130 110 70 110"></polygon>
        </g>
    </g>
</svg>